<svg width="83" height="57" viewBox="0 0 83 57" fill="none" xmlns="http://www.w3.org/2000/svg">
<path d="M63.7707 23.405L45.5925 23.4512L35.7402 15.3104L63.7707 23.405Z" fill="#09696E"/>
<path d="M45.5459 0H63.7703V6.75321H45.5459V0Z" fill="#1DBF98"/>
<path d="M19.7358 7.62939e-06H26.489V6.75322H19.7358V7.62939e-06Z" fill="#1DBF98"/>
<path d="M19.7358 12.1188H26.489V30.1582H19.7358V12.1188Z" fill="#1DBF98"/>
<path d="M35.7402 15.3104L45.5463 0V6.7529L35.7402 15.3104Z" fill="#ACEED6"/>
<path d="M35.7861 15.3104L26.4889 0V6.7529L35.7861 15.3104Z" fill="#ACEED6"/>
<path d="M45.5463 6.75322L35.7402 15.3104L63.7707 6.75322H45.5463Z" fill="#09696E"/>
<path d="M26.4889 6.75322L35.7861 15.3104L19.782 6.75322H26.4889Z" fill="#09696E"/>
<path d="M45.5 23.405H63.7707V30.1582H45.5V23.405Z" fill="#1DBF98"/>
<path d="M45.5925 23.4512V30.2507L35.7402 15.3104L45.5925 23.4512Z" fill="#ACEED6"/>
<path d="M26.489 12.1188V30.1582L35.8325 15.3104L26.489 12.1188Z" fill="#ACEED6"/>
<rect x="45.5" y="12.1188" width="18.3169" height="6.75321" fill="#1DBF98"/>
<path d="M35.6938 15.3104L45.4999 12.1188V18.872L35.6938 15.3104Z" fill="#ACEED6"/>
<path d="M16.6835 56.3025C15.8583 56.3025 15.0668 55.9236 14.4712 55.3639L15.0677 53.7733C15.4653 54.2372 15.7926 54.4309 16.198 54.4309C16.5711 54.4309 16.8617 54.3017 17.0698 54.0434C17.2815 53.7851 17.3873 53.4299 17.3873 52.9778V47.2508L19.3366 47.2507V53.6332C19.3366 54.4799 19.1016 55.1365 18.6316 55.6029C18.1616 56.0693 17.5122 56.3025 16.6835 56.3025Z" fill="white"/>
<path d="M25.9947 47.2507H24.2856L21.0645 56.2642H23.3652L25.1401 50.2123L26.915 56.2642H29.1501L25.9947 47.2507Z" fill="white"/>
<path d="M34.3159 47.1511C34.6305 47.1511 34.9446 47.1939 35.2583 47.279C35.57 47.3637 35.862 47.4749 36.1333 47.613C36.2645 47.6798 36.516 47.8048 36.7563 47.9323C36.8767 47.9962 36.9956 48.0614 37.0962 48.1208C37.1949 48.1791 37.2821 48.2356 37.3354 48.2819L37.395 48.3337L37.3589 48.403L36.6714 49.7214L36.6118 49.8337L36.5161 49.7497C36.4878 49.725 36.4265 49.685 36.3394 49.6345C36.2544 49.5852 36.1521 49.5293 36.0474 49.4743C35.8424 49.3666 35.6192 49.2563 35.5269 49.2067L35.5249 49.2048C35.3484 49.1049 35.1581 49.0257 34.9546 48.9655V48.9646C34.7567 48.9051 34.5552 48.8757 34.3511 48.8757C34.1219 48.8757 33.9332 48.9173 33.7808 48.9948L33.7798 48.9939C33.6283 49.0727 33.5133 49.177 33.4321 49.3054C33.3543 49.4304 33.315 49.5714 33.3149 49.7302C33.3149 49.8603 33.3407 49.9662 33.3872 50.0515C33.4398 50.1377 33.5134 50.2162 33.6108 50.2849H33.6118C33.7144 50.3534 33.8396 50.4218 33.9878 50.489H33.9888L34.4917 50.7009L34.4927 50.7019C34.8883 50.872 35.2472 51.0405 35.5688 51.2077C35.8941 51.3769 36.175 51.5666 36.4097 51.7771L36.5776 51.9411C36.7351 52.1124 36.861 52.3048 36.9546 52.5173H36.9536C37.0828 52.8027 37.146 53.1385 37.146 53.5222C37.146 54.0145 37.0442 54.4502 36.8374 54.8259L36.7427 54.9831C36.4767 55.391 36.1047 55.702 35.6304 55.9167H35.6294C35.1558 56.1274 34.6069 56.2311 33.9849 56.2312C33.5868 56.2312 33.2175 56.186 32.8784 56.0935V56.0925C32.5437 56.0046 32.2415 55.8944 31.9731 55.7595L31.9722 55.7585C31.7103 55.6217 31.4827 55.4805 31.2905 55.3347C31.102 55.1915 30.9503 55.0642 30.8374 54.9528L30.7808 54.8972L30.8228 54.8298L31.6675 53.4392L31.73 53.3366L31.8198 53.4167C31.9301 53.5154 32.0631 53.6261 32.2183 53.7497C32.3699 53.8705 32.5398 53.9876 32.729 54.0993H32.73C32.9169 54.2062 33.119 54.2968 33.3364 54.3708H33.3374C33.5545 54.4401 33.7857 54.4753 34.0308 54.4753C34.2577 54.4753 34.4525 54.4386 34.6177 54.3689H34.6187C34.7862 54.2993 34.9149 54.1981 35.0083 54.0661C35.0993 53.9341 35.1479 53.7667 35.1479 53.5583C35.1479 53.3684 35.1082 53.2144 35.0347 53.0915L35.0337 53.0905C34.9576 52.9603 34.8436 52.8405 34.687 52.7331L34.6851 52.7321C34.5287 52.6193 34.3322 52.5079 34.0952 52.3991L34.0942 52.3981C33.8577 52.2846 33.5866 52.1606 33.2817 52.0261H33.2808C33.0491 51.9205 32.8278 51.8006 32.6167 51.6667L32.6147 51.6657C32.4043 51.5264 32.2166 51.365 32.0513 51.1823C31.8842 50.9977 31.7503 50.7896 31.6509 50.5583V50.5564C31.5537 50.318 31.5054 50.0541 31.5054 49.7663C31.5054 49.4244 31.5731 49.0962 31.7075 48.7829C31.8418 48.47 32.0322 48.191 32.2788 47.947H32.2798C32.5304 47.7026 32.8263 47.5088 33.1665 47.3659L33.2983 47.3151C33.6096 47.205 33.9493 47.1511 34.3159 47.1511Z" fill="white" stroke="white" stroke-width="0.2"/>
<path d="M10.626 52.4206V47.2507L12.6357 47.2556L12.5908 56.2126H10.8477L7.04688 50.8151V56.2644H5.05859V47.2507H7.04688L10.626 52.4206Z" fill="white"/>
<rect x="50.7896" y="54.1433" width="2.12082" height="2.12082" fill="white"/>
<rect x="69.7456" y="50.697" width="5.43459" height="2.12082" fill="white"/>
<rect x="69.7456" y="47.2507" width="5.43459" height="2.12082" fill="white"/>
<rect x="71.8647" y="50.697" width="5.56715" height="2.12082" transform="rotate(90 71.8647 50.697)" fill="white"/>
<rect x="67.3589" y="47.2507" width="9.01347" height="2.12082" transform="rotate(90 67.3589 47.2507)" fill="white"/>
<rect x="57.416" y="54.1433" width="5.43459" height="2.12082" fill="white"/>
<rect x="59.5371" y="47.2507" width="9.01347" height="2.12082" transform="rotate(90 59.5371 47.2507)" fill="white"/>
<rect x="2.67334" y="47.2507" width="9.01347" height="2.12082" transform="rotate(90 2.67334 47.2507)" fill="white"/>
<rect x="39.6548" y="47.2507" width="6.62755" height="2.12082" fill="white"/>
<rect x="44.0293" y="47.2507" width="9.01347" height="2.12082" transform="rotate(90 44.0293 47.2507)" fill="white"/>
<rect x="77.5645" y="54.1433" width="5.43459" height="2.12082" fill="white"/>
<rect x="77.5645" y="50.697" width="5.43459" height="2.12082" fill="white"/>
<rect x="77.5645" y="47.2507" width="5.43459" height="2.12082" fill="white"/>
</svg>











